PathFileType	4	(X/Y/Z)	pose_F01_0-77.trc
DataRate	CameraRate	NumFrames	NumMarkers	Units	OrigDataRate	OrigDataStartFrame	OrigNumFrames
30	30	6	21	m	30	12	77
Frame#	Time	CHip			RHip			RKnee			RAnkle			RBigToe			RSmallToe			RHeel			LHip			LKnee			LAnkle			LBigToe			LSmallToe			LHeel			Neck			Nose			RShoulder			RElbow			RWrist			LShoulder			LElbow			LWrist			
		X1	Y1	Z1	X2	Y2	Z2	X3	Y3	Z3	X4	Y4	Z4	X5	Y5	Z5	X6	Y6	Z6	X7	Y7	Z7	X8	Y8	Z8	X9	Y9	Z9	X10	Y10	Z10	X11	Y11	Z11	X12	Y12	Z12	X13	Y13	Z13	X14	Y14	Z14	X15	Y15	Z15	X16	Y16	Z16	X17	Y17	Z17	X18	Y18	Z18	X19	Y19	Z19	X20	Y20	Z20	X21	Y21	Z21	
12	0.4	-0.2415000193442285	1.8870150337110678	-0.5629847848329359	-0.257230830337601	1.8828476456968042	-0.49786389040627355	-0.25992137980742497	1.7306172597115053	-0.45981704674176466													-0.2212078792402167	1.891097108927063	-0.6270797394627027	-0.21791830888012434	1.7372796758679658	-0.5853978500733061	-0.21883106933205412	1.5906823450346037	-0.5660322806323479	-0.22144533027626045	1.5543847395820158	-0.6330106931122165	-0.21206255267018898	1.5639866010552228	-0.6433524256204316	-0.21780738091103605	1.576674976359966	-0.53949114744045	-0.235549942496667	2.0575237088043496	-0.5647312419714735	-0.24460841653164134	2.1292822897676746	-0.6115345471665294	-0.25984844443754207	2.0567795071317354	-0.4713974345324144	-0.2641088916577311	1.9721562827540364	-0.38303985204515995	-0.2785927560231336	1.9611259204467624	-0.43872917537053846	-0.21145164708833458	2.061346999210738	-0.6512339648279911	-0.17205175281519267	2.00113976178795	-0.7081071491141296	-0.18587930434561614	1.9636158583914523	-0.7380323890169758
13	0.43333333333333335	-0.24059450030888524	1.8893080662453687	-0.568957057620559	-0.2566010520689967	1.8848313206911496	-0.5037799883407608	-0.2591856196344823	1.7320506984666033	-0.46532535639012024													-0.2213764145051558	1.8910855092985355	-0.6275332382193504	-0.21727440883643445	1.738636372199	-0.5904259665676522	-0.2194358037586697	1.591546448355882	-0.5651806758056006	-0.22128537365074277	1.5560649403708606	-0.6335035463970695	-0.21216104863886107	1.5644157973140163	-0.6433623875956874	-0.21780738091103605	1.576674976359966	-0.53949114744045	-0.23524665550998478	2.0600402589676348	-0.5647257385173905	-0.2425857861660827	2.1304738138872934	-0.6143317349837508	-0.2587480500978863	2.058134144596222	-0.4764804234671864	-0.279705256712316	1.9753172634131535	-0.3674666960643954	-0.27213772118810003	1.9994645636557824	-0.4136258323260872	-0.2079614780021574	2.062999037388805	-0.6584038647296938	-0.16594906175161103	2.015774708619783	-0.7199469820111315	-0.1751101490876486	2.0010450095667447	-0.7507873767468716
14	0.4666666666666667	-0.23724063378586596	1.8893902989502152	-0.5766327035311015	-0.25548410554747003	1.8855046998137774	-0.5178466611307335	-0.2577957624871982	1.7325575487759182	-0.47117608222592067													-0.21792790678175483	1.8912410982895342	-0.635032483117021	-0.21708370131561866	1.7394762335297487	-0.5992620825950175	-0.21687610368622062	1.5911758559823623	-0.5682080067788405	-0.22226538067826224	1.5564331376689196	-0.6366478494874998	-0.2118749714294272	1.5659222183443335	-0.6439779342142988	-0.21780738091103605	1.576674976359966	-0.53949114744045	-0.23406163412152267	2.0604655347221215	-0.5698042676770683	-0.24155915979065593	2.132600149447153	-0.6118142636172629	-0.25695912335431165	2.058446236026756	-0.4793548974452912	-0.2944831157356407	1.9905523411689048	-0.3539904682080679	-0.2844857579043277	2.0278337109491855	-0.4422329875309837	-0.2047966142441971	2.0644761324335654	-0.6576777884480907	-0.17022634273076823	2.0312348726220293	-0.7286326308066221	-0.1570041503681002	2.029620650669384	-0.775079254381804
15	0.5	-0.23405487353276172	1.8871181993355421	-0.584117742395946	-0.2524269645782293	1.8851508390001785	-0.5257006972113707	-0.25491463321462254	1.7329773150630787	-0.479097148455056													-0.2146801668910399	1.8890168963466722	-0.64251883714028	-0.2158513854892472	1.7392152704421087	-0.604859783826258	-0.21707639420368727	1.5897138534690698	-0.567800368447263	-0.22269163478382212	1.5582634248701648	-0.6364704098005791	-0.21310098310471237	1.5671946663263616	-0.6471520075367354	-0.21780738091103605	1.576674976359966	-0.53949114744045	-0.2310341455592708	2.0616996087358834	-0.5778372282634675	-0.23858598828242056	2.1334685000004354	-0.611575803482315	-0.2560057478421416	2.056464803606097	-0.49265212640461875	-0.29798360183428496	2.0107339682498275	-0.3543767465625053	-0.2818273896221466	2.057266495452651	-0.46594290980295433	-0.2035670024238536	2.0665232906018205	-0.6634538254283786	-0.13911333178303745	2.0432750037720404	-0.7974967683856633	-0.18480665224928083	2.06241588368087	-0.7570464476260016
16	0.5333333333333333	-0.23070586941266194	1.889419105934538	-0.5919819555331252	-0.24916404307357887	1.8841223820967676	-0.5332893581217255	-0.2561823144151292	1.7353440157045223	-0.49141399467444213													-0.2129499823367655	1.8929049819012185	-0.6569257946427558	-0.21236034772168277	1.738151998647723	-0.6126918538371426	-0.21714645327536417	1.5899015263099376	-0.5677564471724756	-0.2203152709078235	1.5546876891357375	-0.6383821634258964	-0.21089830320984665	1.5646364245875426	-0.6487937261992738	-0.21780738091103605	1.576674976359966	-0.53949114744045	-0.22987947535744793	2.060920166660615	-0.5827498305381676	-0.23644536300929156	2.1325428155348862	-0.6131341485962698	-0.25700142830736056	2.056487721186589	-0.5036647377997678	-0.30149034457272905	2.0408825391329026	-0.37292686225430705	-0.2791690213399656	2.086699279956117	-0.48965283207492494	-0.20225099685095912	2.0696504050048903	-0.669367814849051	-0.1381140090059679	2.0518313639560875	-0.8178489809077797	-0.17610289827682699	2.077436108862969	-0.7595962089638751
17	0.5666666666666667	-0.22911452071124053	1.8912959587449623	-0.6062175232886174	-0.24684291485609708	1.8862978732143705	-0.544321590427141	-0.2561655023585167	1.7349493918492593	-0.5001022082800303													-0.2101683362814027	1.894571166311596	-0.6680806186743118	-0.21109142668102693	1.7379315971590925	-0.618231611320385	-0.2171747989743136	1.5899403352004897	-0.5678292866597051	-0.22252731171634144	1.5576455278053825	-0.6364801953131213	-0.21320038946031614	1.564900623420753	-0.6465092686725147	-0.21780738091103605	1.576674976359966	-0.53949114744045	-0.22458444159167373	2.0612248931206216	-0.5924456291158444	-0.23143649559077004	2.1312264821737164	-0.6138993291034778	-0.25308601080961135	2.054099615460133	-0.5076149599264399	-0.3054908208462214	2.0516074217358558	-0.38701922725600885	-0.2758804279170512	2.0983891349863506	-0.49858963497457487	-0.19784081415162688	2.06768449166717	-0.6731348581026659	-0.13652350248375053	2.0703850578920986	-0.8269275108218492	-0.17780654680324479	2.091297080249684	-0.7570525934194268
